<svg id="Layer_5" enable-background="new 0 0 64 64" height="512" viewBox="0 0 64 64" width="512" xmlns="http://www.w3.org/2000/svg"><g><path fill="#107C93" d="m49 35v2.145c-1.155.366-2 1.435-2 2.709 0 1.087.604 2.065 1.578 2.553l1.95.975c.291.145.472.438.472.764 0 .47-.383.854-.854.854h-.292c-.471 0-.854-.384-.854-.854v-1.146h-2v1.146c0 1.275.845 2.344 2 2.709v2.145h2v-2.145c1.155-.366 2-1.435 2-2.709 0-1.087-.604-2.065-1.578-2.553l-1.95-.975c-.291-.145-.472-.438-.472-.764 0-.47.383-.854.854-.854h.292c.471 0 .854.384.854.854v.146h2v-.146c0-1.275-.845-2.344-2-2.709v-2.145z"/><path fill="#107C93" d="m50 1c-2.535 0-4.895.74-6.896 2h-30.275c-.801 0-1.555.313-2.122.879l-8.828 8.828c-.567.566-.879 1.32-.879 2.121v45.172c0 1.654 1.346 3 3 3h44c1.654 0 3-1.346 3-3v-7.051c5.598-.507 10-5.221 10-10.949 0-5.024-3.39-9.263-8-10.574v-15.426c1.103 0 2 .897 2 2h2c0-1.103.897-2 2-2s2 .897 2 2h2v-4c0-7.168-5.832-13-13-13zm-6.896 13.613c-.613-.382-1.33-.613-2.104-.613-.728 0-1.411.195-2 .537v-.537c0-5.093 3.484-9.376 8.191-10.623-1.638 2.044-3.631 5.629-4.087 11.236zm-32.104-8.199v6.586h-6.586zm37 54.586h-44c-.551 0-1-.448-1-1v-45h10v-10h27.641c-2.249 2.338-3.641 5.507-3.641 9v4h2c0-1.103.897-2 2-2s2 .897 2 2h2c0-1.103.897-2 2-2v15.426c-4.61 1.31-8 5.549-8 10.574 0 5.728 4.402 10.442 10 10.949v7.051c0 .552-.449 1-1 1zm11-19c0 4.963-4.038 9-9 9s-9-4.037-9-9 4.038-9 9-9 9 4.037 9 9zm-9-11c-.338 0-.67.021-1 .051v-13.051h2v13.051c-.33-.03-.662-.051-1-.051zm3-17c-1.2 0-2.266.542-3 1.382-.734-.84-1.8-1.382-3-1.382-.681 0-1.312.187-1.874.488.622-6.721 3.61-10.079 4.874-11.207 1.264 1.128 4.252 4.486 4.874 11.207-.562-.301-1.193-.488-1.874-.488zm8 .537c-.589-.342-1.272-.537-2-.537-.774 0-1.491.231-2.104.613-.456-5.607-2.449-9.192-4.087-11.236 4.707 1.247 8.191 5.53 8.191 10.623z"/><path fill="#107C93" d="m24.834 37h-2.229c-2.16 0-4.252-.634-6.051-1.832l-.554-.37-.555.37c-1.798 1.198-3.89 1.832-6.05 1.832h-2.229l-.149.821c-.083.452-2.017 11.124-2.017 14.179 0 2.199 2.908 4.411 8.642 6.573.75.283 1.543.427 2.358.427s1.608-.144 2.358-.427c5.734-2.162 8.642-4.374 8.642-6.573 0-3.055-1.934-13.727-2.016-14.179zm-7.182 19.702c-.211.079-.431.131-.652.179v-11.881h-2v11.881c-.221-.047-.442-.099-.652-.178-5.049-1.905-7.348-3.773-7.348-4.703 0-2.409 1.378-10.404 1.837-13h.557c1.956 0 3.863-.445 5.605-1.287v5.287h2v-5.287c1.743.842 3.65 1.287 5.606 1.287h.557c.46 2.596 1.838 10.591 1.838 13 0 .93-2.299 2.798-7.348 4.702z"/><path fill="#107C93" d="m35 7h-20v8h20zm-2 6h-16v-4h16z"/><path fill="#107C93" d="m5 17h2v2h-2z"/><path fill="#107C93" d="m9 17h26v2h-26z"/><path fill="#107C93" d="m5 21h30v2h-30z"/><path fill="#107C93" d="m5 25h30v2h-30z"/><path fill="#107C93" d="m33 29h2v2h-2z"/><path fill="#107C93" d="m5 29h26v2h-26z"/><path fill="#107C93" d="m45 21h-8v10h8zm-2 8h-4v-6h4z"/><path fill="#107C93" d="m29 49h10v2h-10z"/><path fill="#107C93" d="m29 53h10v2h-10z"/><path fill="#107C93" d="m29 57h2v2h-2z"/><path fill="#107C93" d="m33 57h2v2h-2z"/><path fill="#107C93" d="m37 57h2v2h-2z"/></g></svg>